<?xml version="1.0" encoding="UTF-8"?>
<!DOCTYPE svg PUBLIC "-//W3C//DTD SVG 1.1//EN" "http://www.w3.org/Graphics/SVG/1.1/DTD/svg11.dtd">
<!-- Creator: CorelDRAW X6 -->
<svg xmlns="http://www.w3.org/2000/svg" xml:space="preserve" width="135.775mm" height="51.2632mm" version="1.1" style="shape-rendering:geometricPrecision; text-rendering:geometricPrecision; image-rendering:optimizeQuality; fill-rule:evenodd; clip-rule:evenodd"
viewBox="0 0 14062 5309"
 xmlns:xlink="http://www.w3.org/1999/xlink">
 <defs>
  <style type="text/css">
   <![CDATA[
    .str1 {stroke:#2B2A29;stroke-width:7.8919}
    .str0 {stroke:#C5C6C6;stroke-width:7.8919}
    .fil2 {fill:none;fill-rule:nonzero}
    .fil7 {fill:#2B2A29}
    .fil6 {fill:#C5C6C6}
    .fil9 {fill:#EBECEC}
    .fil10 {fill:#898989}
    .fil11 {fill:#C5C6C6}
    .fil1 {fill:#B62C33}
    .fil3 {fill:#CE7163}
    .fil5 {fill:#E5B9AC}
    .fil4 {fill:#FEFEFE}
    .fil0 {fill:#2B2A29;fill-rule:nonzero}
    .fil8 {fill:#C5C6C6;fill-rule:nonzero}
   ]]>
  </style>
 </defs>
 <g id="Ebene_x0020_1">
  <metadata id="CorelCorpID_0Corel-Layer"/>
  <path class="fil0" d="M8497 4584c0,-36 -16,-48 -36,-48 -16,0 -36,12 -40,36 -93,376 -198,557 -650,557 -549,0 -686,-581 -686,-1022 0,-428 69,-1143 642,-1143 404,0 561,178 658,577 8,28 20,44 40,44 16,0 32,-20 32,-57l0 -626c0,-20 -24,-52 -48,-52 -226,-16 -464,-57 -690,-57 -553,0 -1018,476 -1018,1248 0,860 497,1256 1062,1256 226,0 493,-57 646,-73 28,-4 61,-20 61,-52l28 -590z"/>
  <path class="fil0" d="M10369 4406c0,-464 -279,-884 -779,-884 -497,0 -779,420 -779,884 0,464 279,893 779,893 501,0 779,-429 779,-893zm-315 57c0,291 -81,690 -452,690 -396,0 -476,-497 -476,-800 0,-303 85,-662 456,-662 400,0 472,460 472,771z"/>
  <path class="fil0" d="M11858 3607c4,-32 -40,-52 -65,-61 -36,-12 -97,-24 -137,-24 -226,0 -400,93 -529,287 -8,8 -12,12 -20,12 -12,0 -24,-8 -28,-20l-61 -190c-8,-28 -28,-48 -65,-48l-404 0c-36,0 -65,8 -65,32 0,20 28,36 65,44l125 24c73,12 133,77 133,178l0 1135c0,101 -57,162 -129,182l-85 24c-36,12 -65,24 -65,48 0,20 28,28 65,28l723 0c36,0 65,-8 65,-32 0,-20 -28,-32 -65,-44l-85 -24c-73,-20 -133,-81 -133,-182l0 -860c0,-57 20,-129 48,-174 69,-109 190,-194 331,-194 125,0 198,28 238,125 16,36 20,117 61,117 28,0 36,-28 40,-65l40 -319z"/>
  <path class="fil0" d="M13399 4281c0,-541 -351,-759 -666,-759 -408,0 -759,351 -759,880 0,646 380,897 747,897 275,0 505,-150 614,-356 4,-12 4,-20 -8,-32l-65 -52c-12,-8 -24,-4 -32,12 -73,117 -262,242 -428,242 -226,0 -493,-157 -513,-630 -4,-44 40,-81 85,-81l933 0c48,0 93,-65 93,-121zm-315 -170c0,65 -24,113 -101,133 -44,16 -137,20 -214,20l-121 0c-89,0 -287,-4 -287,-4 -44,0 -65,-28 -61,-73 40,-319 202,-529 432,-529 182,0 351,145 351,452z"/>
  <path class="fil0" d="M2290 4571c0,-303 -202,-561 -485,-646 -28,-8 -20,-44 4,-57 182,-97 295,-279 295,-493 0,-295 -230,-533 -569,-533l-1470 0c-36,0 -65,16 -65,40 0,20 28,40 65,44l166 24c73,12 133,81 133,182l4 905 -4 937c0,97 -53,170 -125,182l-125 24c-32,8 -65,24 -65,48 0,20 28,36 65,36l1414 0c444,0 763,-311 763,-695zm-751 -1163c0,263 -145,477 -343,477l-194 0c-36,0 -77,-32 -77,-69l4 -703c0,-53 57,-93 109,-93l73 0c263,0 428,117 428,388zm174 1175c0,347 -170,497 -521,497 -214,0 -263,-73 -263,-198l-4 -767c0,-36 40,-65 77,-65l271 0c238,0 440,222 440,533zm2567 -295c0,-541 -343,-759 -731,-759 -473,0 -824,351 -824,880 0,646 444,897 812,897 275,0 553,-150 662,-356 4,-12 8,-24 -4,-36l-93 -69c-20,-16 -32,-12 -44,4 -81,109 -242,246 -440,246 -226,0 -355,-202 -359,-606 0,-44 40,-81 85,-81l840 0c48,0 97,-57 97,-121zm-525 -170c0,61 -36,97 -101,121 -32,12 -77,16 -125,16l-105 0c-44,0 -97,-4 -97,-4 -44,0 -65,-20 -61,-65 16,-303 117,-489 283,-489 174,0 206,234 206,420zm2466 170c0,-541 -343,-759 -731,-759 -473,0 -824,351 -824,880 0,646 444,897 812,897 275,0 553,-150 662,-356 4,-12 8,-24 -4,-36l-93 -69c-20,-16 -32,-12 -44,4 -81,109 -242,246 -440,246 -226,0 -355,-202 -359,-606 0,-44 40,-81 85,-81l840 0c48,0 97,-57 97,-121zm-525 -170c0,61 -36,97 -101,121 -32,12 -77,16 -125,16l-105 0c-44,0 -97,-4 -97,-4 -44,0 -65,-20 -61,-65 16,-303 117,-489 283,-489 174,0 206,234 206,420z"/>
  <path class="fil0" d="M1712 4590c0,-78 -11,-149 -34,-214 -23,-65 -55,-120 -95,-168 -40,-47 -88,-84 -141,-111 -54,-27 -110,-40 -170,-40l-271 0c-19,0 -36,6 -52,18 -16,12 -24,28 -24,46l4 767c0,62 17,110 50,145 34,35 104,52 212,52 178,0 309,-39 394,-117 85,-78 127,-205 127,-380zm-174 -1175c0,-137 -38,-236 -115,-297 -77,-61 -181,-91 -313,-91l-73 0c-27,0 -52,9 -75,26 -23,18 -34,40 -34,67l-4 703c0,19 8,35 24,48 16,13 34,20 52,20l194 0c48,0 94,-13 137,-38 43,-26 79,-60 109,-103 30,-43 53,-94 71,-151 18,-58 26,-119 26,-184zm751 1159c0,97 -19,187 -57,271 -38,83 -90,157 -158,220 -67,63 -148,113 -242,149 -94,36 -197,55 -307,55l-1414 0c-43,0 -65,-12 -65,-36 0,-13 7,-24 20,-30 13,-7 28,-13 44,-18l125 -24c38,-5 68,-25 91,-59 23,-34 34,-75 34,-123l4 -937 -4 -905c0,-51 -13,-93 -38,-125 -26,-32 -57,-51 -95,-57l-166 -24c-43,-5 -65,-20 -65,-44 0,-27 22,-40 65,-40l1470 0c83,0 160,14 230,42 70,28 131,67 182,115 51,48 90,105 117,170 27,65 40,133 40,206 0,108 -26,205 -79,291 -53,86 -125,153 -216,202 -13,5 -21,15 -22,28 -1,13 5,23 18,28 143,43 259,123 349,240 90,117 135,252 135,406z"/>
  <path id="1" class="fil0" d="M3754 4122c0,-46 -3,-94 -8,-143 -5,-50 -15,-95 -30,-135 -15,-40 -36,-74 -63,-101 -27,-27 -62,-40 -105,-40 -83,0 -149,43 -198,129 -48,86 -77,206 -85,359 -3,43 17,65 61,65 11,3 22,4 32,4l65 0 105 0c54,0 96,-5 125,-16 67,-24 101,-65 101,-121zm525 170c0,32 -10,61 -30,85 -20,24 -42,36 -67,36l-840 0c-22,0 -41,8 -59,24 -17,16 -26,35 -26,57 3,202 35,353 97,454 62,101 149,151 263,151 48,0 95,-7 139,-22 44,-15 85,-34 123,-59 38,-24 71,-51 101,-81 30,-30 55,-58 77,-85 13,-16 28,-18 44,-4l93 69c8,8 9,20 4,36 -27,51 -64,98 -111,141 -47,43 -100,81 -158,113 -58,32 -121,57 -190,75 -69,18 -137,26 -204,26 -92,0 -185,-16 -281,-48 -96,-32 -183,-85 -263,-158 -79,-73 -144,-166 -194,-279 -50,-113 -75,-250 -75,-412 0,-132 21,-252 63,-361 42,-109 99,-202 172,-279 73,-77 160,-136 260,-178 101,-42 211,-63 329,-63 97,0 190,14 279,42 89,28 166,73 232,133 66,61 119,139 160,236 40,97 61,213 61,347z"/>
  <path id="2" class="fil0" d="M5695 4122c0,-46 -3,-94 -8,-143 -5,-50 -15,-95 -30,-135 -15,-40 -36,-74 -63,-101 -27,-27 -62,-40 -105,-40 -83,0 -149,43 -198,129 -48,86 -77,206 -85,359 -3,43 17,65 61,65 11,3 22,4 32,4l65 0 105 0c54,0 96,-5 125,-16 67,-24 101,-65 101,-121zm525 170c0,32 -10,61 -30,85 -20,24 -42,36 -67,36l-840 0c-22,0 -41,8 -59,24 -17,16 -26,35 -26,57 3,202 35,353 97,454 62,101 149,151 263,151 48,0 95,-7 139,-22 44,-15 85,-34 123,-59 38,-24 71,-51 101,-81 30,-30 55,-58 77,-85 13,-16 28,-18 44,-4l93 69c8,8 9,20 4,36 -27,51 -64,98 -111,141 -47,43 -100,81 -158,113 -58,32 -121,57 -190,75 -69,18 -137,26 -204,26 -92,0 -185,-16 -281,-48 -96,-32 -183,-85 -263,-158 -79,-73 -144,-166 -194,-279 -50,-113 -75,-250 -75,-412 0,-132 21,-252 63,-361 42,-109 99,-202 172,-279 73,-77 160,-136 260,-178 101,-42 211,-63 329,-63 97,0 190,14 279,42 89,28 166,73 232,133 66,61 119,139 160,236 40,97 61,213 61,347z"/>
  <g>
   <path class="fil1" d="M3792 2919l-316 184c-341,197 -778,80 -975,-261 -197,-341 -80,-778 261,-975l316 -183 714 1236z"/>
   <path id="1" class="fil2 str0" d="M3792 2919l-316 184c-341,197 -778,80 -975,-261 -197,-341 -80,-778 261,-975l316 -183 714 1236z"/>
  </g>
  <polygon class="fil3" points="3312,2378 3309,2373 2953,1757 2765,1866 3121,2482 3124,2487 3477,3099 3665,2990 "/>
  <path class="fil4" d="M2753 2694l3 6 283 491c-187,-9 -415,-166 -523,-357 -118,-200 -131,-469 -50,-635l286 495z"/>
  <path class="fil5" d="M3042 2535l-3 -6 -351 -608c-69,51 -122,111 -165,183l313 542 3 6 310 538c83,-2 171,-20 242,-51l-349 -604z"/>
  <g>
   <polygon class="fil0" points="4461,1354 4445,1320 4457,1314 4470,1308 4481,1301 4493,1294 4505,1287 4516,1279 4527,1271 4538,1263 4549,1254 4560,1246 4570,1236 4580,1227 4590,1217 4600,1207 4610,1196 4619,1185 4629,1174 4638,1162 4647,1150 4656,1138 4664,1125 4673,1112 4681,1099 4689,1086 4697,1072 4705,1057 4712,1043 4720,1028 4727,1012 4734,997 4740,981 4747,964 4781,978 4775,995 4768,1012 4760,1028 4753,1044 4745,1059 4737,1075 4729,1090 4721,1104 4713,1118 4704,1132 4695,1146 4686,1159 4677,1172 4667,1185 4657,1197 4648,1209 4637,1221 4627,1232 4617,1243 4606,1253 4595,1264 4584,1274 4572,1283 4561,1292 4549,1301 4537,1310 4525,1318 4512,1326 4500,1333 4487,1340 4474,1347 "/>
  </g>
  <g>
   <polygon class="fil0" points="4756,1865 4768,1857 4781,1849 4793,1842 4806,1835 4819,1828 4832,1821 4846,1815 4859,1809 4873,1804 4887,1799 4901,1794 4916,1790 4930,1786 4945,1782 4960,1779 4975,1776 4990,1773 5006,1771 5021,1769 5037,1768 5053,1766 5069,1765 5086,1765 5102,1765 5119,1765 5136,1765 5153,1766 5171,1767 5188,1769 5206,1771 5224,1773 5242,1775 5236,1812 5219,1810 5202,1807 5185,1806 5168,1804 5151,1803 5135,1802 5119,1802 5102,1802 5087,1802 5071,1802 5056,1803 5040,1804 5025,1806 5011,1808 4996,1810 4982,1812 4967,1815 4953,1818 4939,1822 4926,1825 4912,1829 4899,1834 4886,1839 4873,1844 4861,1849 4848,1855 4836,1861 4824,1867 4812,1874 4800,1881 4789,1888 4777,1896 "/>
  </g>
  <circle class="fil6" transform="matrix(0.506139 0.876658 -0.876658 0.506139 4795.07 906.934)" r="83"/>
  <circle class="fil6" transform="matrix(-0.506139 -0.876658 -0.876658 0.506139 5310.22 1799.19)" r="83"/>
  <path class="fil7" d="M2387 2517c42,226 155,418 339,585 -18,-16 -41,-25 -60,-38 -143,-103 -307,-127 -501,-32 177,-118 243,-274 223,-459 -4,-35 2,-39 -1,-56z"/>
  <g>
   <path class="fil2 str0" d="M3792 2919l-316 184c-341,197 -778,80 -975,-261 -197,-341 -80,-778 261,-975l316 -183 714 1236z"/>
  </g>
  <g>
   <path class="fil1" d="M4668 1580c197,342 80,778 -261,975 -342,197 -778,80 -975,-261 -197,-342 -80,-778 261,-975 342,-197 778,-80 975,261z"/>
   <path id="1" class="fil2 str0" d="M4668 1580c197,342 80,778 -261,975 -342,197 -778,80 -975,-261 -197,-342 -80,-778 261,-975 342,-197 778,-80 975,261z"/>
  </g>
  <g>
   <polygon class="fil7" points="3792,2919 3078,1682 3697,1324 4411,2561 "/>
   <path id="1" class="fil8" d="M3033 1708l22 -66 68 14 714 1237 -90 52 -714 -1237zm0 0l-23 -40 45 -26 -22 66zm641 -424l68 14 -22 66 -620 358 -47 -81 620 -358zm0 0l45 -26 23 40 -68 -14zm782 1251l-22 66 -68 -14 -714 -1237 90 -52 714 1237zm0 0l23 40 -45 26 22 -66zm-641 424l-68 -14 22 -66 620 -358 47 81 -620 358zm0 0l-45 26 -23 -40 68 14z"/>
  </g>
  <g>
   <path class="fil9" d="M3698 1325c-129,-505 -353,-929 -714,-1237 -245,-110 -451,9 -620,358 -327,565 114,923 714,1237 207,-119 413,-239 620,-358z"/>
   <path id="1" class="fil8" d="M2959 132l50 -88 11 7 34 30 33 31 33 31 32 32 31 33 30 33 29 34 29 35 28 35 27 36 26 36 26 37 25 38 24 38 23 39 23 39 22 40 21 41 21 41 20 42 19 42 19 43 18 43 17 44 17 44 16 45 15 45 15 46 14 46 14 47 13 47 13 48 -98 30 -12 -47 -13 -46 -13 -46 -14 -45 -14 -45 -15 -44 -16 -43 -16 -43 -17 -42 -17 -42 -18 -41 -19 -41 -19 -40 -20 -40 -21 -39 -21 -38 -22 -38 -23 -37 -23 -37 -24 -36 -25 -36 -25 -35 -26 -34 -27 -34 -27 -33 -28 -32 -29 -32 -30 -31 -30 -30 -31 -30 -32 -29 -33 -29 11 7zm50 -88l6 3 5 4 -11 -7zm-601 422l-88 -40 -2 3 16 -33 17 -32 17 -31 17 -29 18 -28 18 -27 18 -25 19 -24 19 -23 19 -22 20 -20 20 -19 21 -18 21 -16 22 -15 22 -14 22 -12 23 -11 23 -9 24 -8 24 -6 24 -4 24 -3 24 -1 25 0 25 2 25 3 25 5 25 6 25 8 25 9 25 11 -50 88 -21 -9 -20 -8 -20 -6 -20 -5 -19 -4 -19 -3 -18 -1 -18 0 -18 1 -17 2 -17 3 -17 4 -17 5 -17 7 -17 8 -17 9 -17 10 -17 11 -17 13 -17 14 -17 15 -16 17 -16 18 -16 20 -16 21 -16 23 -16 24 -16 25 -16 27 -16 28 -16 30 -15 31 -2 3zm2 -3l-1 2 -1 2 2 -3zm645 1180l47 81 -51 2 -56 -30 -55 -30 -54 -30 -53 -31 -52 -31 -50 -32 -49 -32 -47 -33 -45 -33 -43 -34 -41 -35 -39 -35 -37 -36 -35 -37 -32 -38 -30 -39 -27 -40 -24 -41 -21 -42 -18 -43 -15 -44 -11 -45 -8 -46 -4 -47 0 -48 4 -49 8 -50 12 -51 17 -52 21 -53 25 -54 30 -55 88 40 -27 50 -23 48 -19 47 -15 46 -11 44 -7 43 -3 42 0 41 3 40 6 39 10 39 13 38 16 37 19 37 21 36 24 36 27 35 30 35 32 34 35 34 37 33 39 33 41 32 43 32 45 32 47 31 49 31 50 30 52 30 53 30 54 30 55 29 -51 2zm47 81l-26 15 -25 -13 51 -2zm547 -383l98 -30 -26 56 -19 11 -19 11 -19 11 -19 11 -19 11 -19 11 -19 11 -19 11 -19 11 -19 11 -19 11 -19 11 -19 11 -19 11 -19 11 -19 11 -19 11 -19 11 -19 11 -19 11 -19 11 -19 11 -19 11 -19 11 -19 11 -19 11 -19 11 -19 11 -19 11 -19 11 -19 11 -19 11 -47 -81 19 -11 19 -11 19 -11 19 -11 19 -11 19 -11 19 -11 19 -11 19 -11 19 -11 19 -11 19 -11 19 -11 19 -11 19 -11 19 -11 19 -11 19 -11 19 -11 19 -11 19 -11 19 -11 19 -11 19 -11 19 -11 19 -11 19 -11 19 -11 19 -11 19 -11 19 -11 19 -11 -26 56zm98 -30l9 36 -35 20 26 -56z"/>
  </g>
  <g>
   <path class="fil9" d="M4414 2565c372,364 628,770 714,1237 -27,267 -233,386 -620,358 -653,0 -742,-560 -714,-1237 207,-119 413,-238 620,-358z"/>
   <path id="1" class="fil8" d="M5076 3802l0 1 -9 -44 -9 -43 -10 -43 -11 -42 -12 -42 -13 -42 -14 -41 -15 -41 -16 -41 -17 -40 -18 -40 -19 -40 -20 -39 -21 -39 -21 -39 -22 -39 -23 -38 -24 -38 -25 -38 -26 -37 -26 -37 -27 -37 -28 -37 -29 -36 -29 -36 -30 -36 -31 -35 -32 -35 -32 -35 -33 -35 -34 -34 -35 -34 100 -6 35 34 34 35 33 35 33 35 32 35 31 36 30 36 30 36 29 36 28 37 27 37 26 37 26 38 25 38 24 38 23 38 22 39 22 39 21 39 20 40 19 40 18 40 17 41 16 41 15 41 14 42 13 42 12 42 11 43 11 43 10 43 9 44 0 1 -103 -1zm103 0l0 0 0 0 0 -1zm-672 346l16 1 31 2 30 1 28 0 27 0 25 -1 25 -2 24 -2 23 -3 23 -4 22 -5 22 -6 22 -7 21 -7 20 -8 20 -9 19 -10 18 -11 17 -12 16 -13 15 -14 14 -15 13 -16 12 -17 11 -17 10 -18 9 -19 8 -20 7 -21 6 -22 5 -23 4 -24 3 -24 103 1 -3 25 -4 24 -5 23 -6 22 -7 21 -8 20 -9 20 -11 19 -12 18 -13 17 -14 16 -15 15 -16 15 -17 14 -18 13 -20 12 -21 11 -22 10 -24 10 -25 9 -27 8 -28 7 -30 6 -32 5 -33 4 -35 4 -36 2 -38 1 -38 0 -39 -1 -40 -2 -40 -3 16 1 -1 -25zm0 0l8 0 8 1 -16 -1zm-666 -1220l4 -5 -2 63 -2 62 -1 61 0 61 1 59 2 58 4 57 5 56 6 55 8 53 9 52 11 50 12 48 14 47 16 45 18 43 20 41 22 39 24 37 26 34 28 32 31 30 33 27 35 24 37 22 40 19 41 16 43 13 44 10 44 7 45 4 48 1 1 25 -71 -2 -67 -6 -62 -9 -57 -12 -52 -15 -47 -18 -43 -21 -40 -23 -37 -26 -34 -28 -32 -30 -29 -33 -27 -35 -24 -37 -22 -39 -20 -41 -18 -43 -16 -45 -14 -47 -12 -49 -11 -50 -9 -52 -8 -53 -6 -55 -5 -56 -4 -57 -2 -59 -1 -60 0 -61 1 -62 2 -62 2 -63 4 -5 96 10zm-99 -5l0 -2 4 -2 -4 5zm621 -355l98 2 -19 11 -19 11 -19 11 -19 11 -19 11 -19 11 -19 11 -19 11 -19 11 -19 11 -19 11 -19 11 -19 11 -19 11 -19 11 -19 11 -19 11 -19 11 -19 11 -19 11 -19 11 -19 11 -19 11 -19 11 -19 11 -19 11 -19 11 -19 11 -19 11 -19 11 -19 11 -19 11 -96 -10 19 -11 19 -11 19 -11 19 -11 19 -11 19 -11 19 -11 19 -11 19 -11 19 -11 19 -11 19 -11 19 -11 19 -11 19 -11 19 -11 19 -11 19 -11 19 -11 19 -11 19 -11 19 -11 19 -11 19 -11 19 -11 19 -11 19 -11 19 -11 19 -11 19 -11 19 -11 19 -11 98 2 -100 6zm2 -8l60 -35 38 37 -98 -2z"/>
  </g>
  <path class="fil7" d="M4415 1344c-20,36 -50,68 -87,90 -110,64 -252,26 -315,-84 -19,-33 -29,-70 -31,-105 168,-14 306,26 434,100z"/>
  <path class="fil4" d="M4360 1315c-9,14 -23,25 -39,32 -47,21 -102,0 -123,-47 -6,-14 -9,-29 -8,-44 65,14 120,34 170,59z"/>
  <path class="fil7" d="M4747 1912c-41,-1 -84,9 -122,31 -110,64 -148,205 -84,315 19,33 46,60 76,79 96,-139 131,-278 130,-425z"/>
  <path class="fil4" d="M4744 1979c-16,1 -33,7 -48,18 -42,30 -51,89 -21,131 9,12 21,22 34,29 20,-63 30,-121 34,-177z"/>
  <path class="fil10" d="M3874 3877c-45,-96 -82,-200 -102,-321 43,10 81,25 114,39 50,231 158,403 373,480 10,54 13,88 16,107 -165,-46 -306,-134 -401,-304z"/>
  <path class="fil11" d="M3886 3594c50,231 158,403 373,480 -55,-246 -174,-384 -373,-480z"/>
  <path class="fil11" d="M4683 4210c5,-29 13,-62 23,-98 -166,9 -318,-2 -447,-39 10,54 13,90 16,108 79,23 213,33 408,28z"/>
  <path class="fil10" d="M5078 3808c-43,230 -184,298 -372,304 -10,34 -17,66 -23,98 269,-22 465,-125 495,-412 -9,-64 -25,-128 -44,-194 -29,13 -58,29 -93,50 16,54 26,107 36,154z"/>
  <path class="fil11" d="M5078 3808c-43,230 -184,298 -372,304 61,-197 168,-353 335,-458 16,54 26,107 36,154z"/>
  <g>
   <g>
    <path class="fil2 str1" d="M13706 2772c184,0 333,149 333,333 0,184 -149,333 -333,333 -184,0 -333,-149 -333,-333 0,-184 149,-333 333,-333z"/>
   </g>
   <path class="fil0" d="M13797 3004c0,-20 -6,-36 -18,-48 -12,-12 -27,-19 -47,-19l-65 0c-4,0 -8,1 -11,4 -3,3 -5,6 -5,10l-1 122c0,3 1,5 3,8 2,2 5,3 8,3l45 0c27,0 49,-6 65,-18 16,-12 24,-33 24,-62zm121 266c0,3 -1,5 -4,6 -10,4 -22,6 -36,6l-53 0c-5,0 -8,-2 -10,-7l-77 -148c-3,-4 -5,-9 -8,-12 -3,-4 -7,-6 -13,-6l-55 0c-3,0 -5,1 -7,3 -2,2 -3,4 -3,7l1 120c0,7 2,13 6,18 4,5 9,8 15,9l13 3c2,1 5,2 7,3 2,1 3,3 3,5 0,3 -3,4 -10,4l-104 0c-7,0 -10,-1 -10,-4 0,-3 3,-6 10,-7 6,-1 10,-4 14,-9 3,-5 5,-11 5,-19l1 -147 -1 -139c0,-8 -2,-14 -6,-19 -4,-5 -9,-7 -14,-8l-25 -4c-7,-1 -10,-3 -10,-7 0,-2 1,-3 3,-4 2,-1 4,-1 7,-1l192 0c15,0 29,2 42,6 13,4 24,10 33,18 9,8 16,17 21,28 5,11 8,22 8,35 0,26 -8,48 -24,66 -16,18 -37,30 -63,36 -4,1 -4,2 -1,5 2,2 6,5 9,9 3,4 8,11 14,20l75 115c3,4 8,8 13,11 6,3 12,5 18,5 4,0 7,0 9,-1 2,0 5,-1 10,-2 2,0 4,0 5,1 1,1 2,3 2,5z"/>
  </g>
 </g>
</svg>
