<?xml version="1.0" encoding="UTF-8"?>
<!DOCTYPE svg PUBLIC "-//W3C//DTD SVG 1.1//EN" "http://www.w3.org/Graphics/SVG/1.1/DTD/svg11.dtd">
<!-- Creator: CorelDRAW X6 -->
<svg xmlns="http://www.w3.org/2000/svg" xml:space="preserve" width="230.556mm" height="27.9517mm" version="1.1" style="shape-rendering:geometricPrecision; text-rendering:geometricPrecision; image-rendering:optimizeQuality; fill-rule:evenodd; clip-rule:evenodd"
viewBox="0 0 23078 2798"
 xmlns:xlink="http://www.w3.org/1999/xlink">
 <defs>
  <style type="text/css">
   <![CDATA[
    .str0 {stroke:#2B2A29;stroke-width:7.62729}
    .fil4 {fill:none;fill-rule:nonzero}
    .fil2 {fill:#2B2A29}
    .fil0 {fill:#B62C33}
    .fil1 {fill:#C5C6C6;fill-rule:nonzero}
    .fil3 {fill:#2B2A29;fill-rule:nonzero}
   ]]>
  </style>
 </defs>
 <g id="Ebene_x0020_1">
  <metadata id="CorelCorpID_0Corel-Layer"/>
  <g id="_856773008">
   <g>
    <g>
     <path class="fil0" d="M21842 1389c-188,0 -342,-154 -342,-342 0,-188 154,-342 342,-342 565,0 1025,461 1025,1025 0,565 -461,1025 -1025,1025l-1434 0 0 -228 455 0 -1 -462 979 7c188,0 342,-154 342,-342 0,-188 -154,-342 -342,-342z"/>
     <path id="1" class="fil1" d="M21478 1047l44 0 0 0 0 16 1 16 2 16 3 16 4 15 4 15 5 15 6 15 6 14 7 14 8 13 8 13 9 13 10 12 10 12 11 11 11 11 12 10 12 10 13 9 13 8 13 8 14 7 14 6 15 6 15 5 15 4 15 4 16 3 16 2 16 1 16 0 0 44 -19 0 -18 -1 -18 -2 -18 -3 -18 -4 -17 -5 -17 -6 -17 -7 -16 -7 -16 -8 -15 -9 -15 -9 -14 -10 -14 -11 -13 -11 -13 -12 -12 -13 -11 -13 -11 -14 -10 -14 -9 -15 -9 -15 -8 -16 -7 -16 -7 -17 -6 -17 -5 -17 -4 -18 -3 -18 -2 -18 -1 -18 0 -19 0 0zm364 -364l0 44 0 0 -16 0 -16 1 -16 2 -16 3 -15 4 -15 4 -15 5 -15 6 -14 6 -14 7 -13 8 -13 8 -13 9 -12 10 -12 10 -11 11 -11 11 -10 12 -10 12 -9 13 -8 13 -8 13 -7 14 -6 14 -6 15 -5 15 -4 15 -4 15 -3 16 -2 16 -1 16 0 16 -44 0 0 -19 1 -18 2 -18 3 -18 4 -18 5 -17 6 -17 7 -17 7 -16 8 -16 9 -15 9 -15 10 -14 11 -14 11 -13 12 -13 13 -12 13 -11 14 -11 14 -10 15 -9 15 -9 16 -8 16 -7 17 -7 17 -6 17 -5 18 -4 18 -3 18 -2 18 -1 19 0 0 0zm1047 1047l-44 0 0 0 -1 -52 -4 -51 -6 -50 -9 -49 -11 -48 -14 -48 -16 -47 -18 -46 -20 -44 -22 -43 -24 -42 -26 -41 -28 -39 -30 -38 -32 -36 -33 -35 -35 -33 -36 -32 -38 -30 -39 -28 -41 -26 -42 -24 -43 -22 -44 -20 -46 -18 -47 -16 -48 -14 -48 -11 -49 -9 -50 -6 -51 -4 -52 -1 0 -44 54 1 53 4 52 7 51 9 51 12 50 14 49 17 48 19 46 21 45 23 44 25 42 27 41 29 40 31 38 33 36 35 35 36 33 38 31 40 29 41 27 43 25 44 23 45 21 46 19 48 17 49 14 50 12 51 9 51 7 52 4 53 1 54 0 0zm-1047 1047l0 -44 0 0 52 -1 51 -4 50 -6 49 -9 48 -11 48 -14 47 -16 46 -18 44 -20 43 -22 42 -24 41 -26 39 -28 38 -30 36 -32 35 -33 33 -35 32 -36 30 -38 28 -39 26 -41 24 -42 22 -43 20 -44 18 -46 16 -47 14 -48 11 -48 9 -49 6 -50 4 -51 1 -52 44 0 -1 54 -4 53 -7 52 -9 51 -12 51 -14 50 -17 49 -19 48 -21 46 -23 45 -25 44 -27 42 -29 41 -31 40 -33 38 -35 36 -36 35 -38 33 -40 31 -41 29 -43 27 -44 25 -45 23 -46 21 -48 19 -49 17 -50 14 -51 12 -51 9 -52 7 -53 4 -54 1 0 0zm-1434 -44l1434 0 0 44 -1434 0 -22 -22 22 -22zm0 44l-22 0 0 -22 22 22zm22 -250l0 228 -44 0 0 -228 22 -22 22 22zm-44 0l0 -22 22 0 -22 22zm477 22l-455 0 0 -44 455 0 22 22 -22 22zm22 -22l0 22 -22 0 22 -22zm-1 -462l1 462 -44 0 -1 -462 22 -22 22 22zm-44 0l0 -22 22 0 -22 22zm1001 29l-979 -7 0 -44 979 7 0 44 0 0zm0 0l0 0 0 0 0 0zm320 -364l44 0 0 0 0 19 -1 18 -2 18 -3 18 -4 18 -5 17 -6 17 -7 17 -7 16 -8 16 -9 15 -9 15 -10 14 -11 14 -11 13 -12 13 -13 12 -13 11 -14 11 -14 10 -15 9 -15 9 -16 8 -16 7 -17 7 -17 6 -17 5 -18 4 -18 3 -18 2 -18 1 -19 0 0 -44 16 0 16 -1 16 -2 16 -3 15 -4 15 -4 15 -5 15 -6 14 -6 14 -7 13 -8 13 -8 13 -9 12 -10 12 -10 11 -11 11 -11 10 -12 10 -12 9 -13 8 -13 8 -13 7 -14 6 -14 6 -15 5 -15 4 -15 4 -15 3 -16 2 -16 1 -16 0 -16 0 0zm-320 -320l0 -44 0 0 19 0 18 1 18 2 18 3 18 4 17 5 17 6 17 7 16 7 16 8 15 9 15 9 14 10 14 11 13 11 13 12 12 13 11 13 11 14 10 14 9 15 9 15 8 16 7 16 7 17 6 17 5 17 4 18 3 18 2 18 1 18 0 19 -44 0 0 -16 -1 -16 -2 -16 -3 -16 -4 -15 -4 -15 -5 -15 -6 -15 -6 -14 -7 -14 -8 -13 -8 -13 -9 -13 -10 -12 -10 -12 -11 -11 -11 -11 -12 -10 -12 -10 -13 -9 -13 -8 -13 -8 -14 -7 -14 -6 -15 -6 -15 -5 -15 -4 -15 -4 -16 -3 -16 -2 -16 -1 -16 0 0 0z"/>
    </g>
    <g>
     <path class="fil2" d="M21842 933l0 0c-63,0 -114,51 -114,114 0,63 51,114 114,114 315,0 572,254 572,568 0,315 -258,571 -572,571l-1206 0 0 227 1206 0c439,0 797,-358 797,-797 0,-439 -358,-797 -797,-797z"/>
     <path id="1" class="fil1" d="M21838 911l0 0 7 43 0 0 -4 0 -4 -43zm7 43l-2 0 -2 0 4 0zm-96 92l-44 0 0 0 0 -7 1 -7 1 -7 1 -7 2 -7 2 -6 2 -6 2 -6 3 -6 3 -6 3 -6 4 -6 4 -5 4 -5 4 -5 4 -5 5 -4 5 -4 5 -4 5 -4 6 -4 6 -3 6 -3 6 -3 6 -2 6 -2 6 -2 7 -2 7 -1 7 -1 7 -1 7 0 0 44 -5 0 -5 0 -5 1 -5 1 -4 1 -4 1 -4 1 -4 2 -4 2 -4 2 -4 2 -4 2 -4 3 -3 3 -3 3 -3 3 -3 3 -3 3 -3 3 -3 4 -2 4 -2 4 -2 4 -2 4 -2 4 -1 4 -1 4 -1 4 -1 5 -1 5 0 5 0 5 0 0zm92 92l0 44 0 0 -7 0 -7 -1 -7 -1 -7 -1 -7 -2 -6 -2 -6 -2 -6 -2 -6 -3 -6 -3 -6 -3 -6 -4 -5 -4 -5 -4 -5 -4 -5 -5 -4 -5 -4 -5 -4 -5 -4 -5 -4 -6 -3 -6 -3 -6 -3 -6 -2 -6 -2 -6 -2 -6 -2 -7 -1 -7 -1 -7 -1 -7 0 -7 44 0 0 5 0 5 1 5 1 5 1 4 1 4 1 4 2 4 2 4 2 4 2 4 2 4 3 4 3 3 3 3 3 3 3 3 3 3 3 3 4 3 4 2 4 2 4 2 4 2 4 2 4 1 4 1 4 1 5 1 5 1 5 0 5 0 0 0zm594 590l-44 0 0 0 -1 -28 -2 -28 -4 -27 -5 -27 -6 -26 -7 -26 -9 -25 -10 -25 -11 -24 -12 -24 -13 -23 -14 -22 -15 -21 -16 -21 -17 -20 -18 -19 -19 -18 -20 -17 -21 -16 -22 -15 -22 -14 -23 -13 -24 -12 -24 -11 -25 -10 -26 -9 -26 -7 -27 -6 -27 -5 -27 -3 -28 -2 -28 -1 0 -44 30 1 30 2 30 4 29 5 29 7 28 8 28 9 27 11 26 12 26 13 25 14 24 15 23 16 22 17 22 19 21 20 20 20 19 21 18 22 17 23 16 24 14 25 13 25 12 26 11 27 9 27 8 28 7 29 5 29 4 30 2 30 1 30 0 0zm-594 593l0 -44 0 0 28 -1 28 -2 27 -3 27 -5 27 -6 26 -7 26 -9 25 -10 24 -11 24 -12 23 -13 22 -14 22 -15 21 -16 20 -17 19 -18 18 -19 17 -20 16 -21 15 -22 14 -22 13 -23 12 -24 11 -24 10 -25 9 -25 7 -26 6 -27 5 -27 4 -27 2 -28 1 -28 44 0 -1 30 -2 30 -4 30 -5 29 -7 29 -8 28 -9 28 -11 27 -12 26 -13 26 -14 25 -16 24 -17 23 -18 22 -19 22 -20 21 -21 20 -22 19 -22 18 -23 17 -24 15 -25 14 -26 13 -26 12 -27 11 -28 9 -28 8 -29 7 -29 5 -30 4 -30 2 -30 1 0 0zm-1206 -44l1206 0 0 44 -1206 0 -22 -22 22 -22zm-22 22l0 -22 22 0 -22 22zm0 227l0 -227 44 0 0 227 -22 22 -22 -22zm22 22l-22 0 0 -22 22 22zm1206 0l-1206 0 0 -44 1206 0 0 0 0 44zm776 -819l44 0 0 0 -1 42 -3 42 -5 41 -7 40 -9 40 -11 39 -13 38 -15 37 -16 36 -18 35 -20 34 -21 33 -23 32 -24 31 -26 30 -27 28 -28 27 -30 26 -31 24 -32 23 -33 21 -34 20 -35 18 -36 16 -37 15 -38 13 -39 11 -40 9 -40 7 -41 5 -42 3 -42 1 0 -44 40 -1 39 -3 39 -5 38 -7 37 -9 37 -10 36 -12 35 -14 34 -16 33 -17 32 -19 31 -20 30 -22 29 -23 28 -24 27 -26 26 -27 24 -28 23 -29 22 -30 20 -31 19 -32 17 -33 16 -34 14 -35 12 -36 10 -37 9 -37 7 -38 5 -39 3 -39 1 -40 0 0zm-772 -776l-7 -43 4 0 42 1 42 3 41 5 40 7 40 9 39 11 38 13 37 15 36 16 35 18 34 20 33 21 32 23 31 24 30 26 28 27 27 28 26 30 24 31 23 32 21 33 20 34 18 35 16 36 15 37 13 38 11 39 9 40 7 40 5 41 3 42 1 42 -44 0 -1 -40 -3 -39 -5 -39 -7 -38 -9 -37 -10 -37 -12 -36 -14 -35 -16 -34 -17 -33 -19 -32 -20 -31 -22 -30 -23 -29 -24 -28 -26 -27 -27 -26 -28 -24 -29 -23 -30 -22 -31 -20 -32 -19 -33 -17 -34 -16 -35 -14 -36 -12 -37 -10 -37 -9 -38 -7 -39 -5 -39 -3 -40 -1 4 0zm-7 -43l2 0 2 0 -4 0z"/>
    </g>
    <g>
     <path class="fil2" d="M21843 1388c188,0 342,154 342,342 0,188 -154,342 -342,342 -565,0 -1025,-461 -1025,-1025 0,-565 461,-1025 1025,-1025l983 0 -4 690 -979 -7c-188,0 -342,154 -342,342 0,188 154,342 342,342z"/>
     <path id="1" class="fil1" d="M22207 1730l-44 0 0 0 0 -16 -1 -16 -2 -16 -3 -16 -4 -15 -4 -15 -5 -15 -6 -15 -6 -14 -7 -14 -8 -13 -8 -13 -9 -13 -10 -12 -10 -12 -11 -11 -11 -11 -12 -10 -12 -10 -13 -9 -13 -8 -13 -8 -14 -7 -14 -6 -15 -6 -15 -5 -15 -4 -15 -4 -16 -3 -16 -2 -16 -1 -16 0 0 -44 19 0 18 1 18 2 18 3 18 4 17 5 17 6 17 7 16 7 16 8 15 9 15 9 14 10 14 11 13 11 13 12 12 13 11 13 11 14 10 14 9 15 9 15 8 16 7 16 7 17 6 17 5 17 4 18 3 18 2 18 1 18 0 19 0 0zm-364 364l0 -44 0 0 16 0 16 -1 16 -2 16 -3 15 -4 15 -4 15 -5 15 -6 14 -6 14 -7 13 -8 13 -8 13 -9 12 -10 12 -10 11 -11 11 -11 10 -12 10 -12 9 -13 8 -13 8 -13 7 -14 6 -14 6 -15 5 -15 4 -15 4 -15 3 -16 2 -16 1 -16 0 -16 44 0 0 19 -1 18 -2 18 -3 18 -4 18 -5 17 -6 17 -7 17 -7 16 -8 16 -9 15 -9 15 -10 14 -11 14 -11 13 -12 13 -13 12 -13 11 -14 11 -14 10 -15 9 -15 9 -16 8 -16 7 -17 7 -17 6 -17 5 -18 4 -18 3 -18 2 -18 1 -19 0 0 0zm-1047 -1047l44 0 0 0 1 52 4 51 6 50 9 49 11 48 14 48 16 47 18 46 20 44 22 43 24 42 26 41 28 39 30 38 32 36 33 35 35 33 36 32 38 30 39 28 41 26 42 24 43 22 44 20 46 18 47 16 48 14 48 11 49 9 50 6 51 4 52 1 0 44 -54 -1 -53 -4 -52 -7 -51 -9 -51 -12 -50 -14 -49 -17 -48 -19 -46 -21 -45 -23 -44 -25 -42 -27 -41 -29 -40 -31 -38 -33 -36 -35 -35 -36 -33 -38 -31 -40 -29 -41 -27 -43 -25 -44 -23 -45 -21 -46 -19 -48 -17 -49 -14 -50 -12 -51 -9 -51 -7 -52 -4 -53 -1 -54 0 0zm1047 -1047l0 44 0 0 -52 1 -51 4 -50 6 -49 9 -48 11 -48 14 -47 16 -46 18 -44 20 -43 22 -42 24 -41 26 -39 28 -38 30 -36 32 -35 33 -33 35 -32 36 -30 38 -28 39 -26 41 -24 42 -22 43 -20 44 -18 46 -16 47 -14 48 -11 48 -9 49 -6 50 -4 51 -1 52 -44 0 1 -54 4 -53 7 -52 9 -51 12 -51 14 -50 17 -49 19 -48 21 -46 23 -45 25 -44 27 -42 29 -41 31 -40 33 -38 35 -36 36 -35 38 -33 40 -31 41 -29 43 -27 44 -25 45 -23 46 -21 48 -19 49 -17 50 -14 51 -12 51 -9 52 -7 53 -4 54 -1 0 0zm983 44l-983 0 0 -44 983 0 22 22 -22 22zm0 -44l22 0 0 22 -22 -22zm-25 711l4 -690 44 0 -4 690 -22 22 -22 -22zm44 0l0 22 -22 0 22 -22zm-1001 -29l979 7 0 44 -979 -7 0 -44 0 0zm0 0l0 0 0 0 0 0zm-320 364l-44 0 0 0 0 -19 1 -18 2 -18 3 -18 4 -18 5 -17 6 -17 7 -17 7 -16 8 -16 9 -15 9 -15 10 -14 11 -14 11 -13 12 -13 13 -12 13 -11 14 -11 14 -10 15 -9 15 -9 16 -8 16 -7 17 -7 17 -6 17 -5 18 -4 18 -3 18 -2 18 -1 19 0 0 44 -16 0 -16 1 -16 2 -16 3 -15 4 -15 4 -15 5 -15 6 -14 6 -14 7 -13 8 -13 8 -13 9 -12 10 -12 10 -11 11 -11 11 -10 12 -10 12 -9 13 -8 13 -8 13 -7 14 -6 14 -6 15 -5 15 -4 15 -4 15 -3 16 -2 16 -1 16 0 16 0 0zm320 320l0 44 0 0 -19 0 -18 -1 -18 -2 -18 -3 -18 -4 -17 -5 -17 -6 -17 -7 -16 -7 -16 -8 -15 -9 -15 -9 -14 -10 -14 -11 -13 -11 -13 -12 -12 -13 -11 -13 -11 -14 -10 -14 -9 -15 -9 -15 -8 -16 -7 -16 -7 -17 -6 -17 -5 -17 -4 -18 -3 -18 -2 -18 -1 -18 0 -19 44 0 0 16 1 16 2 16 3 16 4 15 4 15 5 15 6 15 6 14 7 14 8 13 8 13 9 13 10 12 10 12 11 11 11 11 12 10 12 10 13 9 13 8 13 8 14 7 14 6 15 6 15 5 15 4 15 4 16 3 16 2 16 1 16 0 0 0z"/>
    </g>
    <g>
     <path class="fil0" d="M21843 1845l0 0c63,0 114,-51 114,-114 0,-63 -51,-114 -114,-114 -315,0 -572,-254 -572,-568 0,-315 258,-571 572,-571l1213 0 -2 -227 -1211 0c-439,0 -797,358 -797,797 0,439 358,797 797,797z"/>
     <path id="1" class="fil1" d="M21847 1866l0 0 -8 -43 0 0 4 0 4 43zm-8 -43l2 0 2 0 -4 0zm96 -92l44 0 0 0 0 7 -1 7 -1 7 -1 7 -2 7 -2 6 -2 6 -2 6 -3 6 -3 6 -3 6 -4 6 -4 5 -4 5 -4 5 -4 5 -5 4 -5 4 -5 4 -5 4 -6 4 -6 3 -6 3 -6 3 -6 2 -6 2 -6 2 -7 2 -7 1 -7 1 -7 1 -7 0 0 -44 5 0 5 0 5 -1 5 -1 4 -1 4 -1 4 -1 4 -2 4 -2 4 -2 4 -2 4 -2 4 -3 3 -3 3 -3 3 -3 3 -3 3 -3 3 -3 3 -4 2 -4 2 -4 2 -4 2 -4 2 -4 1 -4 1 -4 1 -4 1 -5 1 -5 0 -5 0 -5 0 0zm-92 -92l0 -44 0 0 7 0 7 1 7 1 7 1 7 2 6 2 6 2 6 2 6 3 6 3 6 3 6 4 5 4 5 4 5 4 5 5 4 5 4 5 4 5 4 5 4 6 3 6 3 6 3 6 2 6 2 6 2 6 2 7 1 7 1 7 1 7 0 7 -44 0 0 -5 0 -5 -1 -5 -1 -5 -1 -4 -1 -4 -1 -4 -2 -4 -2 -4 -2 -4 -2 -4 -2 -4 -3 -4 -3 -3 -3 -3 -3 -3 -3 -3 -3 -3 -3 -3 -4 -3 -4 -2 -4 -2 -4 -2 -4 -2 -4 -2 -4 -1 -4 -1 -4 -1 -5 -1 -5 -1 -5 0 -5 0 0 0zm-594 -590l44 0 0 0 1 28 2 28 4 27 5 27 6 26 7 26 9 25 10 25 11 24 12 24 13 23 14 22 15 21 16 21 17 20 18 19 19 18 20 17 21 16 22 15 22 14 23 13 24 12 24 11 25 10 26 9 26 7 27 6 27 5 27 3 28 2 28 1 0 44 -30 -1 -30 -2 -30 -4 -29 -5 -29 -7 -28 -8 -28 -9 -27 -11 -26 -12 -26 -13 -25 -14 -24 -15 -23 -16 -22 -17 -22 -19 -21 -20 -20 -20 -19 -21 -18 -22 -17 -23 -16 -24 -14 -25 -13 -25 -12 -26 -11 -27 -9 -27 -8 -28 -7 -29 -5 -29 -4 -30 -2 -30 -1 -30 0 0zm594 -593l0 44 0 0 -28 1 -28 2 -27 3 -27 5 -27 6 -26 7 -26 9 -25 10 -24 11 -24 12 -23 13 -22 14 -22 15 -21 16 -20 17 -19 18 -18 19 -17 20 -16 21 -15 22 -14 22 -13 23 -12 24 -11 24 -10 25 -9 25 -7 26 -6 27 -5 27 -4 27 -2 28 -1 28 -44 0 1 -30 2 -30 4 -30 5 -29 7 -29 8 -28 9 -28 11 -27 12 -26 13 -26 14 -25 15 -24 17 -23 18 -22 19 -22 20 -21 21 -20 22 -19 22 -18 23 -17 24 -15 25 -14 26 -13 26 -12 27 -11 28 -9 28 -8 29 -7 29 -5 30 -4 30 -2 30 -1 0 0zm1213 44l-1213 0 0 -44 1213 0 22 22 -22 22zm22 -22l0 22 -22 0 22 -22zm-2 -227l2 227 -44 0 -2 -227 22 -22 22 22zm-22 -22l22 0 0 22 -22 -22zm-1211 0l1211 0 0 44 -1211 0 0 0 0 -44zm-776 819l-44 0 0 0 1 -42 3 -42 5 -41 7 -40 9 -40 11 -39 13 -38 15 -37 16 -36 18 -35 20 -34 21 -33 23 -32 24 -31 26 -30 27 -28 28 -27 30 -26 31 -24 32 -23 33 -21 34 -20 35 -18 36 -16 37 -15 38 -13 39 -11 40 -9 40 -7 41 -5 42 -3 42 -1 0 44 -40 1 -39 3 -39 5 -38 7 -37 9 -37 10 -36 12 -35 14 -34 16 -33 17 -32 19 -31 20 -30 22 -29 23 -28 24 -27 26 -26 27 -24 28 -23 29 -22 30 -20 31 -19 32 -17 33 -16 34 -14 35 -12 36 -10 37 -9 37 -7 38 -5 39 -3 39 -1 40 0 0zm772 776l8 43 -4 0 -42 -1 -42 -3 -41 -5 -40 -7 -40 -9 -39 -11 -38 -13 -37 -15 -36 -16 -35 -18 -34 -20 -33 -21 -32 -23 -31 -24 -30 -26 -28 -27 -27 -28 -26 -30 -24 -31 -23 -32 -21 -33 -20 -34 -18 -35 -16 -36 -15 -37 -13 -38 -11 -39 -9 -40 -7 -40 -5 -41 -3 -42 -1 -42 44 0 1 40 3 39 5 39 7 38 9 37 10 37 12 36 14 35 16 34 17 33 19 32 20 31 22 30 23 29 24 28 26 27 27 26 28 24 29 23 30 22 31 20 32 19 33 17 34 16 35 14 36 12 37 10 37 9 38 7 39 5 39 3 40 1 -4 0zm8 43l-2 0 -2 0 4 0z"/>
    </g>
   </g>
   <path class="fil3" d="M1851 2664c0,17 -7,30 -21,39 -14,8 -28,14 -42,17 -39,6 -86,13 -139,22 -54,8 -110,18 -169,26 -59,8 -120,16 -184,22 -63,6 -125,8 -184,8 -149,0 -291,-26 -425,-78 -134,-52 -251,-132 -353,-241 -101,-108 -182,-245 -243,-410 -61,-165 -91,-360 -91,-585 0,-203 28,-385 85,-545 56,-161 133,-297 230,-410 97,-113 211,-199 340,-260 130,-61 266,-91 410,-91 118,0 239,8 361,24 123,16 243,28 361,37 14,0 26,6 36,20 10,13 15,25 15,37l0 656c0,39 -11,59 -34,59 -20,0 -34,-15 -42,-46 -25,-104 -56,-194 -91,-270 -35,-76 -80,-139 -133,-188 -54,-49 -118,-86 -194,-110 -76,-24 -166,-36 -270,-36 -101,0 -188,19 -260,57 -72,38 -132,88 -182,151 -49,63 -89,136 -118,219 -30,82 -53,168 -70,256 -17,89 -28,177 -34,266 -6,89 -8,169 -8,242 0,115 11,235 32,360 21,125 58,239 112,345 54,105 127,192 220,259 93,67 211,101 355,101 118,0 216,-12 292,-36 76,-24 139,-60 188,-108 49,-48 89,-108 118,-182 30,-73 57,-159 82,-258 3,-14 8,-24 17,-30 8,-6 17,-8 25,-8 25,0 38,17 38,51l-30 618z"/>
   <path id="1" class="fil3" d="M3684 2718c-5,25 -20,37 -47,37l-1312 0c-36,0 -54,-8 -54,-24 0,-18 18,-32 54,-41 32,-7 57,-23 76,-49 19,-26 29,-60 29,-103l3 -801 -3 -778c0,-43 -11,-77 -32,-103 -21,-26 -48,-41 -79,-46l-139 -20c-36,-5 -54,-17 -54,-37 0,-18 18,-27 54,-27l757 0c36,0 54,8 54,24 0,11 -6,20 -17,27 -11,7 -24,11 -37,14l-112 20c-32,5 -59,20 -81,47 -23,27 -34,62 -34,105l-3 774 3 822c0,18 7,33 22,44 15,11 31,17 49,17l423 -7c88,-2 159,-14 215,-34 55,-20 100,-48 134,-85 34,-36 61,-80 81,-132 20,-52 39,-110 57,-176 5,-14 11,-24 20,-32 9,-8 18,-12 27,-12 11,0 20,6 25,17 6,11 6,32 2,61l-81 497z"/>
   <path id="2" class="fil3" d="M4876 1089c-5,-9 -10,-14 -17,-14 -7,0 -12,5 -17,14l-308 909c-9,23 -1,34 24,34l636 0c23,0 29,-11 20,-34l-338 -909zm1112 1643c0,9 -6,15 -17,19 -11,3 -24,5 -37,5l-707 0c-36,0 -54,-8 -54,-24 0,-18 18,-32 54,-41l105 -20c23,-5 42,-14 57,-29 16,-15 24,-34 24,-59 0,-11 -2,-21 -7,-30l-128 -355c-7,-18 -20,-27 -41,-27l-730 0c-20,0 -34,9 -41,27l-132 402c-5,11 -8,23 -10,34 -2,11 -3,19 -3,24 0,20 8,35 24,44 18,11 27,21 27,30 0,11 -6,18 -17,20 -11,2 -25,3 -41,3l-389 0c-36,0 -54,-8 -54,-24 0,-11 6,-20 17,-25 11,-6 24,-11 37,-15l71 -20c18,-5 36,-13 54,-25 18,-12 30,-28 37,-46l717 -1873c5,-11 16,-20 34,-25 18,-6 38,-8 61,-8 23,0 43,3 63,8 19,6 31,14 35,25l754 1876c9,20 22,36 39,47 17,11 34,19 52,24l91 17c14,2 26,7 37,14 11,7 17,16 17,27z"/>
   <path id="3" class="fil3" d="M8073 754c0,9 -6,16 -17,22 -11,6 -24,11 -37,15l-81 20c-32,9 -59,26 -81,52 -23,26 -34,59 -34,100l-24 1166c-5,219 -66,383 -184,494 -118,110 -283,166 -495,166 -239,0 -425,-55 -560,-164 -134,-109 -203,-274 -208,-495l-14 -1170c0,-41 -11,-74 -32,-101 -21,-27 -48,-43 -79,-47l-105 -20c-36,-9 -54,-21 -54,-37 0,-18 18,-27 54,-27l720 0c36,0 54,9 54,27 0,9 -6,16 -17,22 -11,6 -24,11 -37,15l-105 20c-32,5 -58,20 -79,47 -21,27 -32,62 -32,105l-3 1143c0,79 14,150 41,213 27,63 63,116 108,159 45,43 99,76 161,98 62,23 129,34 201,34 61,0 119,-9 176,-27 56,-18 105,-46 147,-83 42,-37 75,-86 100,-145 25,-60 37,-131 37,-215l-10 -1143c0,-36 -3,-65 -8,-88 -6,-23 -13,-41 -22,-54 -9,-14 -19,-24 -29,-32 -10,-8 -20,-14 -29,-19 -16,-9 -30,-17 -42,-24 -12,-7 -19,-16 -19,-27 0,-11 6,-19 17,-22 11,-3 26,-5 44,-5l524 0c36,0 54,9 54,27z"/>
   <path id="4" class="fil3" d="M9864 2213c0,104 -19,193 -57,266 -38,73 -90,132 -154,178 -64,45 -139,78 -225,100 -86,21 -176,32 -270,32 -63,0 -121,-2 -174,-7 -53,-5 -103,-11 -150,-17 -47,-7 -93,-14 -137,-21 -44,-7 -90,-12 -137,-17 -11,0 -22,-6 -32,-17 -10,-12 -15,-21 -15,-28l-54 -525c0,-9 2,-17 5,-25 3,-8 10,-12 19,-12 14,0 24,9 30,27 34,97 72,177 115,242 43,64 91,115 145,152 54,37 116,64 184,79 69,16 146,24 232,24 59,0 114,-7 166,-20 52,-14 97,-34 137,-61 39,-27 71,-61 95,-103 24,-42 35,-92 35,-150 0,-97 -28,-175 -85,-236 -56,-61 -127,-112 -211,-154 -85,-42 -176,-79 -276,-113 -99,-34 -191,-75 -276,-123 -85,-48 -155,-108 -211,-177 -56,-70 -85,-162 -85,-277 0,-85 15,-161 43,-228 29,-66 68,-123 118,-168 50,-46 110,-81 181,-105 71,-24 149,-36 235,-36 77,0 145,3 205,8 60,5 115,11 166,18 51,7 99,13 144,20 45,7 91,11 139,14 29,0 44,14 44,43l3 523c0,25 -9,37 -27,37 -14,0 -23,-9 -27,-27 -38,-183 -108,-310 -210,-382 -101,-72 -245,-108 -429,-108 -97,0 -178,23 -243,68 -65,45 -98,112 -98,200 0,90 28,163 85,218 57,56 127,103 212,143 85,39 176,77 274,112 99,35 190,79 274,131 85,52 156,117 212,196 56,79 85,182 85,308z"/>
   <path id="5" class="fil3" d="M12879 2732c0,16 -18,24 -54,24l-747 0c-16,0 -29,-2 -41,-5 -11,-3 -17,-10 -17,-19 0,-11 6,-20 17,-25 11,-6 25,-11 41,-15l105 -20c32,-5 58,-20 79,-47 21,-27 32,-62 32,-105l3 -781 0 -467c0,-18 -8,-28 -24,-29 -16,-1 -27,6 -34,22l-720 1410c-7,14 -16,20 -29,20 -12,0 -22,-7 -29,-20l-676 -1417c-5,-11 -12,-15 -24,-12 -11,3 -17,11 -17,22l30 1217c2,68 7,115 14,142 7,27 16,46 27,57 11,11 21,19 30,24 9,5 14,12 14,24 0,16 -15,24 -44,24l-490 0c-36,0 -54,-8 -54,-24 0,-18 18,-32 54,-41l105 -20c32,-5 57,-21 78,-49 20,-28 32,-63 34,-103l34 -1217 0 -338c0,-43 -11,-78 -32,-105 -21,-27 -48,-43 -79,-47l-149 -20c-36,-5 -54,-18 -54,-41 0,-16 18,-24 54,-24l480 0c36,0 61,16 74,47l649 1413c7,14 17,20 30,20 14,0 24,-7 30,-20l696 -1413c9,-16 19,-28 29,-36 10,-8 24,-12 42,-12l264 0c29,0 44,8 44,24 0,11 -5,19 -14,24 -9,5 -19,12 -30,24 -11,11 -21,30 -29,57 -8,27 -12,74 -12,142l-3 740 3 781c0,43 11,78 34,105 23,27 50,43 81,47l139 20c36,5 54,18 54,41z"/>
   <path id="6" class="fil3" d="M14034 1089c-5,-9 -10,-14 -17,-14 -7,0 -12,5 -17,14l-308 909c-9,23 -1,34 24,34l636 0c23,0 29,-11 20,-34l-338 -909zm1112 1643c0,9 -6,15 -17,19 -11,3 -24,5 -37,5l-707 0c-36,0 -54,-8 -54,-24 0,-18 18,-32 54,-41l105 -20c23,-5 42,-14 57,-29 16,-15 24,-34 24,-59 0,-11 -2,-21 -7,-30l-128 -355c-7,-18 -20,-27 -41,-27l-730 0c-20,0 -34,9 -41,27l-132 402c-5,11 -8,23 -10,34 -2,11 -3,19 -3,24 0,20 8,35 24,44 18,11 27,21 27,30 0,11 -6,18 -17,20 -11,2 -25,3 -41,3l-389 0c-36,0 -54,-8 -54,-24 0,-11 6,-20 17,-25 11,-6 24,-11 37,-15l71 -20c18,-5 36,-13 54,-25 18,-12 30,-28 37,-46l717 -1873c5,-11 16,-20 34,-25 18,-6 38,-8 61,-8 23,0 43,3 63,8 19,6 31,14 35,25l754 1876c9,20 22,36 39,47 17,11 34,19 52,24l91 17c14,2 26,7 37,14 11,7 17,16 17,27z"/>
   <path id="7" class="fil3" d="M16633 1227c0,-108 -32,-197 -97,-265 -64,-69 -150,-103 -256,-103l-356 0c-23,0 -43,7 -61,22 -18,15 -27,33 -27,56l-3 673c0,16 6,30 19,42 12,12 26,19 42,19l248 0c152,0 272,-33 360,-100 88,-66 132,-181 132,-343zm669 1464c0,16 -8,27 -24,34 -54,20 -121,30 -199,30l-295 0c-25,0 -43,-12 -54,-37l-424 -815c-14,-25 -29,-47 -45,-68 -16,-20 -39,-30 -71,-30l-302 0c-16,0 -29,5 -41,15 -11,10 -17,23 -17,39l3 659c0,41 11,74 34,101 23,27 50,44 81,51l71 17c14,5 26,10 37,17 11,7 17,16 17,27 0,16 -18,24 -54,24l-571 0c-36,0 -54,-8 -54,-24 0,-18 18,-32 54,-41 32,-7 57,-23 76,-49 19,-26 29,-60 29,-103l3 -811 -3 -767c0,-43 -11,-77 -32,-103 -21,-26 -48,-41 -79,-46l-139 -20c-36,-5 -54,-17 -54,-37 0,-11 6,-19 17,-22 11,-3 25,-5 41,-5l1058 0c83,0 161,12 232,36 71,24 131,57 181,100 50,43 88,94 117,152 28,59 42,123 42,193 0,142 -45,263 -134,362 -89,99 -205,165 -348,196 -23,5 -25,14 -7,27 14,11 30,28 50,51 19,23 45,59 76,108l414 636c18,25 43,46 74,63 32,17 64,25 98,25 20,0 36,-1 47,-3 11,-2 29,-6 54,-10 11,-2 21,-1 29,5 8,6 12,14 12,25z"/>
   <path id="8" class="fil3" d="M19553 2729c0,18 -18,27 -54,27l-827 0c-36,0 -54,-8 -54,-24 0,-16 18,-29 54,-41l126 -37c18,-5 29,-17 34,-39 5,-21 1,-39 -10,-52l-651 -818 -139 122c-18,14 -27,32 -27,54l3 598c0,41 11,75 34,103 23,28 50,45 81,49l105 20c36,9 54,21 54,37 0,18 -18,27 -54,27l-717 0c-36,0 -54,-8 -54,-24 0,-11 6,-20 17,-25 11,-6 24,-11 37,-15l105 -20c32,-5 58,-20 79,-47 21,-27 32,-62 32,-105l3 -781 -3 -778c0,-43 -11,-77 -32,-103 -21,-26 -48,-41 -79,-46l-139 -20c-36,-5 -54,-17 -54,-37 0,-18 18,-27 54,-27l724 0c36,0 54,8 54,24 0,18 -18,32 -54,41l-85 20c-32,7 -57,24 -78,51 -20,27 -30,61 -30,101l-3 703c0,9 4,15 12,19 8,3 15,2 22,-5l707 -730c29,-29 44,-57 44,-85 0,-29 -14,-52 -41,-68 -16,-9 -30,-15 -42,-19 -12,-3 -19,-11 -19,-22 0,-11 6,-19 17,-24 11,-5 26,-7 44,-7l531 0c36,0 54,8 54,24 0,16 -18,28 -54,37 -38,7 -82,25 -131,56 -48,30 -84,57 -107,79l-712 676 837 930c32,36 73,69 122,100 50,30 100,49 152,56l57 7c36,5 54,17 54,37z"/>
   <g>
    <g>
     <path class="fil4 str0" d="M19781 173c186,0 336,151 336,336 0,186 -151,336 -336,336 -186,0 -336,-151 -336,-336 0,-186 151,-336 336,-336z"/>
    </g>
    <path class="fil3" d="M19873 408c0,-20 -6,-36 -18,-49 -12,-13 -28,-19 -47,-19l-65 0c-4,0 -8,1 -11,4 -3,3 -5,6 -5,10l-1 123c0,3 1,5 3,8 2,2 5,3 8,3l46 0c28,0 50,-6 66,-18 16,-12 24,-33 24,-63zm123 269c0,3 -1,5 -4,6 -10,4 -22,6 -37,6l-54 0c-5,0 -8,-2 -10,-7l-78 -150c-3,-5 -5,-9 -8,-12 -3,-4 -7,-6 -13,-6l-55 0c-3,0 -5,1 -7,3 -2,2 -3,4 -3,7l1 121c0,7 2,14 6,19 4,5 9,8 15,9l13 3c2,1 5,2 7,3 2,1 3,3 3,5 0,3 -3,4 -10,4l-105 0c-7,0 -10,-1 -10,-4 0,-3 3,-6 10,-7 6,-1 10,-4 14,-9 4,-5 5,-11 5,-19l1 -149 -1 -141c0,-8 -2,-14 -6,-19 -4,-5 -9,-8 -15,-8l-25 -4c-7,-1 -10,-3 -10,-7 0,-2 1,-3 3,-4 2,-1 5,-1 7,-1l194 0c15,0 29,2 42,7 13,4 24,10 33,18 9,8 16,17 21,28 5,11 8,23 8,35 0,26 -8,48 -25,66 -16,18 -38,30 -64,36 -4,1 -5,2 -1,5 2,2 6,5 9,9 4,4 8,11 14,20l76 117c3,5 8,8 14,11 6,3 12,5 18,5 4,0 7,0 9,-1 2,0 5,-1 10,-2 2,0 4,0 5,1 1,1 2,3 2,5z"/>
   </g>
  </g>
 </g>
</svg>
