<?xml version="1.0" encoding="UTF-8"?>
<!DOCTYPE svg PUBLIC "-//W3C//DTD SVG 1.1//EN" "http://www.w3.org/Graphics/SVG/1.1/DTD/svg11.dtd">
<!-- Creator: CorelDRAW X6 -->
<svg xmlns="http://www.w3.org/2000/svg" xml:space="preserve" width="148.364mm" height="54.4632mm" version="1.1" style="shape-rendering:geometricPrecision; text-rendering:geometricPrecision; image-rendering:optimizeQuality; fill-rule:evenodd; clip-rule:evenodd"
viewBox="0 0 14724 5405"
 xmlns:xlink="http://www.w3.org/1999/xlink">
 <defs>
  <style type="text/css">
   <![CDATA[
    .str0 {stroke:#C5C6C6;stroke-width:7.56204}
    .fil2 {fill:none;fill-rule:nonzero}
    .fil7 {fill:#2B2A29}
    .fil6 {fill:#C5C6C6}
    .fil9 {fill:#EBECEC}
    .fil10 {fill:#898989}
    .fil11 {fill:#C5C6C6}
    .fil1 {fill:#B62C33}
    .fil3 {fill:#CE7163}
    .fil5 {fill:#E5B9AC}
    .fil4 {fill:#FEFEFE}
    .fil0 {fill:#2B2A29;fill-rule:nonzero}
    .fil8 {fill:#C5C6C6;fill-rule:nonzero}
   ]]>
  </style>
 </defs>
 <g id="Ebene_x0020_1">
  <metadata id="CorelCorpID_0Corel-Layer"/>
  <path class="fil0" d="M3177 5331c0,19 -22,29 -66,29l-907 0c-19,0 -36,-2 -49,-6 -14,-4 -21,-12 -21,-23 0,-14 7,-24 21,-31 14,-7 30,-13 49,-18l127 -25c38,-5 70,-25 96,-57 26,-33 39,-75 39,-127l4 -948 0 -566c0,-22 -10,-34 -29,-35 -19,-1 -33,8 -41,27l-874 1711c-8,16 -20,25 -35,25 -15,0 -27,-8 -35,-25l-821 -1720c-5,-14 -15,-18 -29,-14 -14,4 -21,13 -21,27l37 1477c3,82 8,140 16,172 8,33 19,56 33,70 14,14 26,23 37,29 11,5 16,15 16,29 0,19 -18,29 -53,29l-595 0c-44,0 -66,-10 -66,-29 0,-22 22,-38 66,-49l127 -25c38,-5 70,-25 94,-60 25,-34 38,-76 41,-125l41 -1477 0 -410c0,-52 -13,-94 -39,-127 -26,-33 -58,-52 -96,-57l-181 -25c-44,-5 -66,-22 -66,-49 0,-19 22,-29 66,-29l583 0c44,0 74,19 90,57l788 1715c8,16 21,25 37,25 16,0 29,-8 37,-25l845 -1715c11,-19 23,-34 35,-43 12,-10 29,-14 51,-14l320 0c36,0 53,10 53,29 0,14 -5,23 -16,29 -11,5 -23,15 -37,29 -14,14 -25,37 -35,70 -10,33 -14,90 -14,172l-4 899 4 948c0,52 14,94 41,127 27,33 60,52 98,57l168 25c44,5 66,22 66,49z"/>
  <path id="1" class="fil0" d="M4765 4553c0,-79 -6,-165 -18,-256 -12,-92 -36,-176 -70,-254 -34,-78 -83,-143 -146,-194 -63,-52 -145,-78 -246,-78 -96,0 -173,21 -232,62 -59,41 -106,94 -142,159 -36,66 -60,138 -72,217 -12,79 -18,157 -18,233 0,77 6,162 18,256 12,94 36,183 72,264 36,82 85,151 148,207 63,56 145,84 246,84 93,0 170,-23 230,-68 60,-45 107,-102 142,-172 34,-70 57,-145 70,-227 12,-82 18,-160 18,-233zm320 -60c0,118 -17,231 -51,341 -34,109 -85,206 -154,289 -68,83 -152,150 -250,201 -98,51 -211,76 -337,76 -129,0 -241,-25 -339,-76 -97,-51 -180,-118 -248,-201 -68,-83 -120,-180 -154,-289 -34,-109 -51,-223 -51,-341 0,-118 18,-231 53,-339 36,-108 87,-204 154,-287 67,-83 150,-150 248,-199 98,-49 211,-74 337,-74 126,0 238,25 337,74 99,49 182,116 250,199 68,83 120,179 154,287 34,108 51,221 51,339z"/>
  <path class="fil0" d="M12914 5327c0,22 -22,33 -66,33l-566 0c-36,0 -53,-10 -53,-29 0,-14 5,-23 16,-29 11,-5 23,-15 37,-29 14,-14 25,-36 35,-68 10,-31 14,-79 14,-142l0 -2089c0,-52 -13,-94 -39,-125 -26,-31 -58,-50 -96,-55l-140 -25c-16,-3 -31,-8 -45,-14 -14,-7 -21,-17 -21,-31 0,-22 22,-33 66,-33l529 0c38,0 57,16 57,49l-16 271 0 2060c0,52 13,93 39,123 26,30 58,51 96,62l90 25c16,5 31,12 43,18 12,7 18,16 18,27z"/>
  <path id="1" class="fil0" d="M14403 4194c0,-156 -36,-272 -109,-347 -73,-75 -155,-113 -248,-113 -118,0 -215,49 -291,146 -77,97 -126,228 -148,392 -5,49 15,74 62,74 38,3 75,4 111,4l181 0 123 0c38,0 79,-1 121,-4 42,-3 75,-8 96,-16 38,-11 65,-28 80,-51 15,-23 23,-51 23,-84zm320 172c0,30 -10,58 -29,84 -19,26 -41,39 -66,39l-948 0c-22,0 -42,8 -62,25 -19,16 -27,36 -25,57 5,120 25,222 57,304 33,82 74,148 123,197 49,49 104,85 164,107 60,22 119,33 176,33 41,0 83,-8 127,-23 44,-15 86,-34 125,-57 40,-23 75,-49 107,-78 31,-29 57,-58 76,-88 8,-16 19,-21 33,-12l66 53c8,11 11,22 8,33 -55,104 -137,190 -248,259 -111,68 -236,103 -376,103 -93,0 -185,-16 -275,-49 -90,-33 -172,-86 -246,-160 -73,-74 -132,-168 -176,-283 -44,-115 -66,-254 -66,-419 0,-134 21,-257 62,-367 42,-111 98,-205 170,-283 72,-78 155,-138 248,-181 93,-42 192,-64 295,-64 79,0 159,14 240,43 81,29 153,74 218,135 64,62 117,142 158,240 41,98 62,216 62,353z"/>
  <g id="_720799536">
   <path class="fil0" d="M7688 4653c0,-308 -206,-572 -493,-658 -29,-8 -21,-45 4,-58 185,-99 300,-284 300,-502 0,-300 -234,-543 -580,-543l-1497 0c-37,0 -66,16 -66,41 0,21 29,41 66,45l169 25c74,12 136,82 136,185l4 921 -4 954c0,99 -53,173 -127,185l-127 25c-33,8 -66,25 -66,49 0,21 29,37 66,37l1439 0c452,0 777,-317 777,-707zm-765 -1184c0,267 -148,485 -349,485l-197 0c-37,0 -78,-33 -78,-70l4 -715c0,-53 58,-95 111,-95l74 0c267,0 436,119 436,395zm177 1196c0,354 -173,506 -530,506 -218,0 -267,-74 -267,-201l-4 -781c0,-37 41,-66 78,-66l275 0c243,0 448,226 448,543zm2613 -300c0,-551 -350,-773 -744,-773 -481,0 -839,358 -839,896 0,658 452,913 826,913 280,0 563,-153 674,-363 4,-12 8,-25 -4,-37l-95 -70c-21,-16 -33,-12 -45,4 -82,111 -247,251 -448,251 -230,0 -362,-206 -366,-617 0,-45 41,-82 86,-82l855 0c49,0 99,-58 99,-123zm-535 -173c0,62 -37,99 -103,123 -33,12 -78,16 -127,16l-107 0c-45,0 -99,-4 -99,-4 -45,0 -66,-21 -62,-66 16,-308 119,-498 288,-498 177,0 210,238 210,428zm2510 173c0,-551 -350,-773 -744,-773 -481,0 -839,358 -839,896 0,658 452,913 826,913 280,0 563,-153 674,-363 4,-12 8,-25 -4,-37l-95 -70c-21,-16 -33,-12 -45,4 -82,111 -247,251 -448,251 -230,0 -362,-206 -366,-617 0,-45 41,-82 86,-82l855 0c49,0 99,-58 99,-123zm-535 -173c0,62 -37,99 -103,123 -33,12 -78,16 -127,16l-107 0c-45,0 -99,-4 -99,-4 -45,0 -66,-21 -62,-66 16,-308 119,-498 288,-498 177,0 210,238 210,428z"/>
   <path class="fil0" d="M7100 4673c0,-79 -12,-152 -35,-218 -23,-66 -56,-123 -97,-171 -41,-48 -89,-86 -144,-113 -55,-27 -112,-41 -173,-41l-275 0c-19,0 -37,6 -53,19 -16,12 -25,28 -25,47l4 781c0,63 17,112 51,148 34,36 106,53 216,53 181,0 315,-40 401,-119 86,-79 130,-208 130,-386zm-177 -1196c0,-140 -39,-241 -117,-302 -78,-62 -184,-93 -319,-93l-74 0c-27,0 -53,9 -76,27 -23,18 -35,40 -35,68l-4 715c0,19 8,36 25,49 16,14 34,21 53,21l197 0c49,0 96,-13 140,-39 44,-26 81,-61 111,-105 30,-44 54,-95 72,-154 18,-59 27,-121 27,-187zm765 1180c0,99 -19,191 -58,275 -38,85 -92,160 -160,224 -69,64 -151,115 -247,152 -96,37 -200,56 -312,56l-1439 0c-44,0 -66,-12 -66,-37 0,-14 7,-24 21,-31 14,-7 29,-13 45,-18l127 -25c38,-5 69,-25 93,-60 23,-34 35,-76 35,-125l4 -954 -4 -921c0,-52 -13,-95 -39,-127 -26,-33 -58,-52 -97,-58l-169 -25c-44,-5 -66,-21 -66,-45 0,-27 22,-41 66,-41l1497 0c85,0 163,14 234,43 71,29 133,68 185,117 52,49 92,107 119,173 27,66 41,136 41,210 0,110 -27,208 -80,296 -53,88 -127,156 -220,206 -14,5 -21,15 -23,29 -1,14 5,23 18,29 145,44 264,125 356,245 92,119 138,257 138,413z"/>
   <path id="1" class="fil0" d="M9179 4196c0,-47 -3,-95 -8,-146 -5,-51 -16,-97 -31,-138 -15,-41 -36,-75 -64,-103 -27,-27 -63,-41 -107,-41 -85,0 -152,44 -201,132 -49,88 -78,210 -86,366 -3,44 18,66 62,66 11,3 22,4 33,4l66 0 107 0c55,0 97,-5 127,-16 69,-25 103,-66 103,-123zm534 173c0,33 -10,62 -31,86 -21,25 -43,37 -68,37l-855 0c-22,0 -42,8 -60,25 -18,16 -27,36 -27,58 3,206 36,360 99,463 63,103 152,154 267,154 49,0 97,-8 142,-23 45,-15 87,-35 125,-60 38,-25 73,-52 103,-82 30,-30 56,-59 78,-86 14,-16 29,-18 45,-4l95 70c8,8 10,21 4,37 -27,52 -65,100 -113,144 -48,44 -101,82 -160,115 -59,33 -123,58 -193,76 -70,18 -139,27 -208,27 -93,0 -188,-16 -286,-49 -97,-33 -186,-86 -267,-160 -81,-74 -147,-169 -197,-284 -51,-115 -76,-255 -76,-419 0,-134 21,-257 64,-368 42,-111 101,-206 175,-284 74,-78 162,-138 265,-181 103,-42 214,-64 335,-64 99,0 193,14 284,43 90,29 169,74 236,136 67,62 121,142 162,241 41,99 62,217 62,354z"/>
   <path id="2" class="fil0" d="M11154 4196c0,-47 -3,-95 -8,-146 -5,-51 -16,-97 -31,-138 -15,-41 -36,-75 -64,-103 -27,-27 -63,-41 -107,-41 -85,0 -152,44 -201,132 -49,88 -78,210 -86,366 -3,44 18,66 62,66 11,3 22,4 33,4l66 0 107 0c55,0 97,-5 127,-16 69,-25 103,-66 103,-123zm534 173c0,33 -10,62 -31,86 -21,25 -43,37 -68,37l-855 0c-22,0 -42,8 -60,25 -18,16 -27,36 -27,58 3,206 36,360 99,463 63,103 152,154 267,154 49,0 97,-8 142,-23 45,-15 87,-35 125,-60 38,-25 73,-52 103,-82 30,-30 56,-59 78,-86 14,-16 29,-18 45,-4l95 70c8,8 10,21 4,37 -27,52 -65,100 -113,144 -48,44 -101,82 -160,115 -59,33 -123,58 -193,76 -70,18 -139,27 -208,27 -93,0 -188,-16 -286,-49 -97,-33 -186,-86 -267,-160 -81,-74 -147,-169 -197,-284 -51,-115 -76,-255 -76,-419 0,-134 21,-257 64,-368 42,-111 101,-206 175,-284 74,-78 162,-138 265,-181 103,-42 214,-64 335,-64 99,0 193,14 284,43 90,29 169,74 236,136 67,62 121,142 162,241 41,99 62,217 62,354z"/>
   <g>
    <path class="fil1" d="M9217 2971l-322 187c-348,201 -792,82 -993,-266 -201,-348 -82,-792 266,-993l322 -186 727 1259z"/>
    <path id="1" class="fil2 str0" d="M9217 2971l-322 187c-348,201 -792,82 -993,-266 -201,-348 -82,-792 266,-993l322 -186 727 1259z"/>
   </g>
   <polygon class="fil3" points="8729,2421 8726,2416 8363,1788 8172,1900 8534,2526 8537,2532 8897,3155 9088,3044 "/>
   <path class="fil4" d="M8159 2743l3 6 289 500c-191,-9 -422,-169 -532,-363 -120,-203 -133,-478 -51,-646l291 504z"/>
   <path class="fil5" d="M8454 2580l-3 -6 -357 -619c-70,52 -124,113 -168,187l319 552 3 6 316 547c85,-2 175,-21 246,-52l-355 -615z"/>
   <g>
    <polygon class="fil0" points="9898,1378 9882,1344 9895,1338 9907,1331 9919,1325 9931,1317 9943,1310 9954,1302 9966,1294 9977,1286 9988,1277 9998,1268 10009,1258 10020,1249 10030,1239 10040,1228 10050,1217 10059,1206 10069,1195 10078,1183 10087,1171 10096,1158 10105,1146 10114,1132 10122,1119 10130,1105 10138,1091 10146,1076 10154,1061 10161,1046 10169,1031 10176,1015 10183,998 10189,982 10224,996 10217,1013 10210,1030 10203,1046 10195,1062 10188,1078 10180,1094 10171,1109 10163,1124 10154,1138 10145,1153 10136,1166 10127,1180 10118,1193 10108,1206 10098,1219 10088,1231 10078,1242 10067,1254 10057,1265 10046,1276 10034,1286 10023,1296 10012,1306 10000,1315 9988,1325 9976,1333 9963,1342 9951,1350 9938,1357 9925,1364 9912,1371 "/>
   </g>
   <g>
    <polygon class="fil0" points="10199,1899 10211,1890 10224,1882 10237,1875 10250,1867 10263,1861 10276,1854 10290,1848 10304,1842 10318,1836 10332,1831 10346,1826 10361,1822 10376,1818 10391,1814 10406,1811 10421,1808 10437,1805 10453,1803 10469,1801 10485,1799 10501,1798 10518,1797 10534,1797 10551,1796 10568,1797 10586,1797 10603,1798 10621,1799 10638,1801 10656,1803 10675,1805 10693,1807 10688,1845 10670,1842 10652,1840 10635,1838 10618,1837 10601,1836 10584,1835 10568,1834 10551,1834 10535,1834 10519,1835 10504,1836 10488,1837 10473,1838 10458,1840 10443,1842 10428,1845 10414,1848 10399,1851 10385,1854 10371,1858 10358,1862 10344,1867 10331,1872 10318,1877 10305,1882 10292,1888 10280,1894 10268,1901 10255,1907 10244,1914 10232,1922 10220,1930 "/>
   </g>
   <circle class="fil6" transform="matrix(0.537747 0.931405 -0.931405 0.537747 10238.3 923.17)" r="79"/>
   <circle class="fil6" transform="matrix(-0.537747 -0.931405 -0.931405 0.537747 10762.7 1831.53)" r="79"/>
   <path class="fil7" d="M7787 2562c43,230 158,426 345,596 -18,-16 -42,-25 -61,-39 -145,-105 -312,-129 -510,-33 180,-121 247,-279 227,-467 -4,-36 2,-39 -1,-57z"/>
   <g>
    <path class="fil2 str0" d="M9217 2971l-322 187c-348,201 -792,82 -993,-266 -201,-348 -82,-792 266,-993l322 -186 727 1259z"/>
   </g>
   <g>
    <path class="fil1" d="M10109 1609c201,348 82,792 -266,993 -348,201 -792,82 -993,-266 -201,-348 -82,-792 266,-993 348,-201 792,-82 993,266z"/>
    <path id="1" class="fil2 str0" d="M10109 1609c201,348 82,792 -266,993 -348,201 -792,82 -993,-266 -201,-348 -82,-792 266,-993 348,-201 792,-82 993,266z"/>
   </g>
   <g>
    <polygon class="fil7" points="9217,2971 8490,1712 9121,1348 9848,2607 "/>
    <path id="1" class="fil8" d="M8444 1739l22 -68 70 15 727 1259 -92 53 -727 -1259zm0 0l-24 -41 46 -26 -22 68zm653 -432l70 15 -22 68 -631 364 -47 -82 631 -364zm0 0l46 -26 24 41 -70 -15zm796 1274l-22 68 -70 -15 -727 -1259 92 -53 727 1259zm0 0l24 41 -46 26 22 -68zm-653 432l-70 -15 22 -68 631 -364 48 82 -631 364zm0 0l-46 26 -24 -41 70 15z"/>
   </g>
   <g>
    <path class="fil9" d="M9121 1348c-131,-514 -359,-946 -727,-1259 -249,-112 -459,9 -631,364 -333,576 116,939 727,1259 210,-121 421,-243 631,-364z"/>
    <path id="1" class="fil8" d="M8369 134l51 -89 11 7 35 30 34 31 33 32 32 32 32 33 31 34 30 34 29 35 28 36 28 36 27 37 26 38 25 38 25 39 24 39 23 40 22 41 22 41 21 42 20 42 20 43 19 43 18 44 18 45 17 45 16 46 16 46 15 47 15 47 14 48 13 48 13 48 -100 31 -12 -47 -13 -47 -14 -46 -14 -46 -15 -45 -15 -45 -16 -44 -17 -44 -17 -43 -18 -43 -18 -42 -19 -42 -20 -41 -20 -40 -21 -40 -22 -39 -22 -39 -23 -38 -24 -37 -24 -37 -25 -36 -26 -36 -26 -35 -27 -34 -28 -34 -29 -33 -29 -32 -30 -32 -31 -31 -32 -30 -33 -30 -33 -29 11 7zm51 -89l6 3 5 4 -11 -7zm-612 429l-89 -41 -2 3 17 -34 17 -32 17 -31 18 -30 18 -28 18 -27 19 -26 19 -25 19 -23 20 -22 20 -21 21 -19 21 -18 21 -17 22 -15 22 -14 23 -12 23 -11 24 -9 24 -8 24 -6 25 -5 25 -3 25 -1 25 0 25 2 25 3 25 5 25 6 25 8 25 9 25 11 -51 89 -21 -9 -21 -8 -20 -6 -20 -5 -19 -4 -19 -3 -19 -1 -18 0 -18 1 -18 2 -17 3 -17 4 -17 5 -17 7 -17 8 -17 9 -17 10 -17 12 -17 13 -17 14 -17 16 -17 17 -17 19 -17 20 -17 21 -16 23 -16 24 -16 26 -16 27 -16 29 -16 30 -16 32 -2 3zm2 -3l-1 2 -1 2 2 -3zm657 1201l48 82 -52 2 -57 -30 -56 -31 -55 -31 -54 -31 -53 -32 -51 -32 -50 -33 -48 -33 -46 -34 -44 -35 -42 -35 -40 -36 -38 -37 -35 -38 -33 -39 -30 -40 -28 -41 -25 -42 -22 -43 -18 -44 -15 -45 -11 -46 -8 -47 -4 -48 0 -49 4 -50 8 -51 13 -52 17 -53 21 -54 26 -55 30 -56 89 41 -28 51 -23 49 -19 48 -15 46 -11 45 -7 44 -4 43 0 42 3 41 7 40 10 39 13 39 16 38 19 37 22 37 25 36 27 36 30 35 33 35 35 34 38 34 40 33 42 33 44 33 46 32 48 32 50 31 51 31 53 31 54 30 55 30 56 30 -52 2zm48 82l-26 15 -25 -13 52 -2zm557 -390l100 -31 -26 57 -20 11 -20 11 -20 11 -20 11 -20 11 -20 11 -20 11 -20 11 -20 11 -20 11 -20 11 -20 11 -20 11 -20 11 -20 11 -20 11 -20 11 -20 11 -20 11 -20 11 -20 11 -20 11 -20 11 -20 11 -20 11 -20 11 -20 11 -20 11 -20 11 -20 11 -20 11 -20 11 -48 -82 20 -11 20 -11 20 -11 20 -11 20 -11 20 -11 20 -11 20 -11 20 -11 20 -11 20 -11 20 -11 20 -11 20 -11 20 -11 20 -11 20 -11 20 -11 20 -11 20 -11 20 -11 20 -11 20 -11 20 -11 20 -11 20 -11 20 -11 20 -11 20 -11 20 -11 20 -11 20 -11 -26 57zm100 -31l9 36 -36 21 26 -57z"/>
   </g>
   <g>
    <path class="fil9" d="M9850 2612c379,371 640,784 727,1259 -27,272 -237,393 -631,364 -665,0 -756,-570 -727,-1259 210,-121 421,-243 631,-364z"/>
    <path id="1" class="fil8" d="M10525 3870l0 1 -9 -44 -10 -44 -11 -44 -12 -43 -13 -43 -14 -43 -15 -42 -15 -42 -16 -42 -17 -41 -18 -41 -19 -41 -20 -40 -21 -40 -22 -40 -23 -39 -24 -39 -24 -39 -25 -38 -26 -38 -27 -38 -28 -37 -28 -37 -29 -37 -30 -37 -31 -36 -32 -36 -32 -36 -33 -36 -34 -35 -34 -35 -35 -35 102 -6 35 35 35 35 34 35 33 36 32 36 32 36 31 37 30 37 29 37 29 37 28 38 27 38 26 38 25 39 24 39 24 39 23 39 22 40 21 40 20 40 19 41 18 41 17 41 16 42 16 42 15 42 14 43 13 43 12 43 11 44 10 44 9 44 0 1 -105 -1zm105 0l0 0 0 0 0 -1zm-684 352l16 1 32 2 30 1 29 0 27 0 26 -1 25 -2 24 -2 24 -3 23 -4 23 -5 22 -6 22 -7 21 -8 21 -9 20 -9 19 -10 18 -11 17 -12 17 -13 16 -14 15 -15 14 -16 13 -17 12 -18 10 -19 9 -20 8 -20 7 -21 6 -22 5 -23 4 -24 3 -25 105 1 -3 25 -4 24 -5 23 -6 23 -7 22 -9 21 -10 20 -11 19 -12 18 -13 17 -14 17 -15 16 -16 15 -18 14 -19 13 -20 12 -21 12 -23 11 -24 10 -26 9 -27 8 -29 7 -30 6 -32 6 -34 5 -36 4 -37 3 -38 1 -39 0 -40 -1 -40 -2 -41 -3 16 1 -1 -25zm0 0l8 0 8 1 -16 -1zm-678 -1242l4 -5 -2 64 -2 63 -1 63 0 62 1 61 2 59 4 58 5 57 6 56 8 54 9 53 11 51 13 49 14 48 16 46 18 44 20 42 22 40 24 37 27 35 29 33 31 30 33 27 36 25 38 22 40 19 42 16 44 13 45 10 45 7 46 4 49 1 1 25 -73 -2 -69 -6 -63 -9 -58 -13 -53 -15 -48 -18 -44 -21 -41 -23 -38 -26 -35 -29 -32 -31 -29 -33 -27 -36 -25 -38 -22 -40 -20 -42 -18 -44 -16 -46 -14 -48 -13 -50 -11 -51 -9 -53 -8 -54 -6 -56 -5 -57 -4 -58 -2 -60 -1 -61 0 -62 1 -63 2 -63 2 -64 4 -5 97 10zm-101 -5l0 -2 4 -2 -4 5zm632 -361l100 2 -20 11 -20 11 -20 11 -20 11 -20 11 -20 11 -20 11 -20 11 -20 11 -20 11 -20 11 -20 11 -20 11 -20 11 -20 11 -20 11 -20 11 -20 11 -20 11 -20 11 -20 11 -20 11 -20 11 -20 11 -20 11 -20 11 -20 11 -20 11 -20 11 -20 11 -20 11 -20 11 -97 -10 20 -11 20 -11 20 -11 20 -11 20 -11 20 -11 20 -11 20 -11 20 -11 20 -11 20 -11 20 -11 20 -11 20 -11 20 -11 20 -11 20 -11 20 -11 20 -11 20 -11 20 -11 20 -11 20 -11 20 -11 20 -11 20 -11 20 -11 20 -11 20 -11 20 -11 20 -11 20 -11 100 2 -102 6zm2 -8l61 -35 38 37 -100 -2z"/>
   </g>
   <path class="fil7" d="M9852 1368c-20,36 -50,69 -89,91 -112,65 -256,26 -321,-86 -19,-33 -30,-71 -31,-107 171,-14 311,26 441,102z"/>
   <path class="fil4" d="M9796 1339c-10,14 -23,26 -40,33 -48,21 -104,0 -126,-48 -6,-14 -9,-30 -8,-44 66,14 122,35 173,60z"/>
   <path class="fil7" d="M10189 1946c-42,-1 -85,9 -124,31 -112,65 -151,209 -86,321 19,33 47,61 77,81 97,-141 133,-283 133,-433z"/>
   <path class="fil4" d="M10186 2015c-17,1 -34,7 -48,18 -42,31 -52,90 -21,133 9,13 21,23 34,29 21,-64 31,-123 35,-180z"/>
   <path class="fil10" d="M9300 3947c-46,-98 -84,-204 -104,-327 44,11 83,26 116,40 51,235 161,410 380,488 10,55 14,90 16,109 -168,-47 -311,-136 -408,-310z"/>
   <path class="fil11" d="M9313 3659c51,235 161,410 380,488 -56,-250 -177,-391 -380,-488z"/>
   <path class="fil11" d="M10124 4286c5,-29 13,-63 24,-99 -169,9 -324,-2 -455,-39 10,55 14,91 16,110 81,24 217,34 416,28z"/>
   <path class="fil10" d="M10526 3877c-44,234 -187,304 -378,310 -10,35 -18,67 -24,99 274,-23 473,-128 504,-419 -10,-66 -25,-130 -45,-198 -29,13 -59,30 -94,51 17,55 26,109 37,157z"/>
   <path class="fil11" d="M10526 3877c-44,234 -187,304 -378,310 62,-200 171,-359 341,-467 17,55 26,109 37,157z"/>
  </g>
 </g>
</svg>
